<svg width="94" height="60" viewBox="0 0 94 60" fill="none" xmlns="http://www.w3.org/2000/svg">
<circle cx="8.5" cy="30" r="7.96875" fill="#0C4089" stroke="#0C4089" stroke-width="1.0625"/>
<circle cx="8.5" cy="30.3125" r="5.3125" fill="#1570EF"/>
<path d="M8.5 29.9474C8.49953 30.2159 8.59927 30.4745 8.77881 30.6702C8.95836 30.8659 9.20413 30.9839 9.46581 31L55.7934 31C55.9989 30.9308 56.1779 30.7968 56.3048 30.6173C56.4317 30.4377 56.5 30.2217 56.5 30C56.5 29.7783 56.4317 29.5623 56.3048 29.3827C56.1779 29.2032 55.9989 29.0692 55.7934 29L9.46581 29C9.21662 28.9998 8.97699 29.0982 8.797 29.2748C8.61701 29.4513 8.5106 29.6923 8.5 29.9474Z" fill="url(#paint0_linear_961_370)"/>
<g clip-path="url(#clip0_961_370)">
<path d="M63.9179 0.300056C80.8779 0.300056 94.5279 14.4401 93.7379 31.5701C93.0279 46.9701 80.4379 59.4201 65.0379 59.9801C51.4479 60.4701 39.8079 51.8801 35.6779 39.8001C34.9979 37.8001 33.5179 36.1801 31.6079 35.2801L20.6679 30.1401L31.5979 25.0101C33.4879 24.1201 34.9779 22.5301 35.6479 20.5501C39.6479 8.78006 50.7879 0.300056 63.9179 0.300056Z" fill="url(#paint1_linear_961_370)"/>
<circle cx="20" cy="20" r="20" transform="matrix(0 -1 -1 0 84.2686 50)" fill="white"/>
<path d="M58.0356 24.824C58.1316 23.336 58.6996 22.176 59.7396 21.344C60.7956 20.512 62.1396 20.096 63.7716 20.096C64.8916 20.096 65.8596 20.296 66.6756 20.696C67.4916 21.096 68.1076 21.64 68.5236 22.328C68.9396 23.016 69.1476 23.792 69.1476 24.656C69.1476 25.648 68.8836 26.496 68.3556 27.2C67.8276 27.904 67.1956 28.376 66.4596 28.616V28.712C67.4036 29 68.1396 29.528 68.6676 30.296C69.1956 31.048 69.4596 32.016 69.4596 33.2C69.4596 34.144 69.2436 34.984 68.8116 35.72C68.3796 36.456 67.7396 37.04 66.8916 37.472C66.0436 37.888 65.0276 38.096 63.8436 38.096C62.1156 38.096 60.6916 37.656 59.5716 36.776C58.4676 35.88 57.8756 34.6 57.7956 32.936H60.4356C60.4996 33.784 60.8276 34.48 61.4196 35.024C62.0116 35.552 62.8116 35.816 63.8196 35.816C64.7956 35.816 65.5476 35.552 66.0756 35.024C66.6036 34.48 66.8676 33.784 66.8676 32.936C66.8676 31.816 66.5076 31.024 65.7876 30.56C65.0836 30.08 63.9956 29.84 62.5236 29.84H61.8996V27.584H62.5476C63.8436 27.568 64.8276 27.352 65.4996 26.936C66.1876 26.52 66.5316 25.864 66.5316 24.968C66.5316 24.2 66.2836 23.592 65.7876 23.144C65.2916 22.68 64.5876 22.448 63.6756 22.448C62.7796 22.448 62.0836 22.68 61.5876 23.144C61.0916 23.592 60.7956 24.152 60.6996 24.824H58.0356Z" fill="#231F20"/>
</g>
<defs>
<linearGradient id="paint0_linear_961_370" x1="9" y1="30" x2="110.5" y2="30" gradientUnits="userSpaceOnUse">
<stop stop-color="#1570EF"/>
<stop offset="1" stop-color="#0C4089"/>
</linearGradient>
<linearGradient id="paint1_linear_961_370" x1="57.2192" y1="60" x2="57.2192" y2="0.300056" gradientUnits="userSpaceOnUse">
<stop stop-color="#1570EF"/>
<stop offset="1" stop-color="#0C4089"/>
</linearGradient>
<clipPath id="clip0_961_370">
<rect width="60" height="82.6734" fill="white" transform="matrix(0 -1 -1 0 93.7686 60)"/>
</clipPath>
</defs>
</svg>
