<svg width="94" height="60" viewBox="0 0 94 60" fill="none" xmlns="http://www.w3.org/2000/svg">
<circle cx="8.5" cy="30" r="7.96875" fill="#0C4089" stroke="#0C4089" stroke-width="1.0625"/>
<circle cx="8.5" cy="30.3125" r="5.3125" fill="#1570EF"/>
<path d="M8.5 29.9474C8.49953 30.2159 8.59927 30.4745 8.77881 30.6702C8.95836 30.8659 9.20413 30.9839 9.46581 31L55.7934 31C55.9989 30.9308 56.1779 30.7968 56.3048 30.6173C56.4317 30.4377 56.5 30.2217 56.5 30C56.5 29.7783 56.4317 29.5623 56.3048 29.3827C56.1779 29.2032 55.9989 29.0692 55.7934 29L9.46581 29C9.21662 28.9998 8.97699 29.0982 8.797 29.2748C8.61701 29.4513 8.5106 29.6923 8.5 29.9474Z" fill="url(#paint0_linear_961_340)"/>
<g clip-path="url(#clip0_961_340)">
<path d="M63.9179 0.300056C80.8779 0.300056 94.5279 14.4401 93.7379 31.5701C93.0279 46.9701 80.4379 59.4201 65.0379 59.9801C51.4479 60.4701 39.8079 51.8801 35.6779 39.8001C34.9979 37.8001 33.5179 36.1801 31.6079 35.2801L20.6679 30.1401L31.5979 25.0101C33.4879 24.1201 34.9779 22.5301 35.6479 20.5501C39.6479 8.78006 50.7879 0.300056 63.9179 0.300056Z" fill="url(#paint1_linear_961_340)"/>
<circle cx="20" cy="20" r="20" transform="matrix(0 -1 -1 0 84.2686 50)" fill="white"/>
<path d="M60.6532 23V20.504H65.6452V38H62.8852V23H60.6532Z" fill="#231F20"/>
</g>
<defs>
<linearGradient id="paint0_linear_961_340" x1="9" y1="30" x2="110.5" y2="30" gradientUnits="userSpaceOnUse">
<stop stop-color="#1570EF"/>
<stop offset="1" stop-color="#0C4089"/>
</linearGradient>
<linearGradient id="paint1_linear_961_340" x1="57.2192" y1="60" x2="57.2192" y2="0.300056" gradientUnits="userSpaceOnUse">
<stop stop-color="#1570EF"/>
<stop offset="1" stop-color="#0C4089"/>
</linearGradient>
<clipPath id="clip0_961_340">
<rect width="60" height="82.6734" fill="white" transform="matrix(0 -1 -1 0 93.7686 60)"/>
</clipPath>
</defs>
</svg>
