<svg width="94" height="60" viewBox="0 0 94 60" fill="none" xmlns="http://www.w3.org/2000/svg">
<circle cx="8.5" cy="30" r="7.96875" fill="#0C4089" stroke="#0C4089" stroke-width="1.0625"/>
<circle cx="8.5" cy="30.3125" r="5.3125" fill="#1570EF"/>
<path d="M8.5 29.9474C8.49953 30.2159 8.59927 30.4745 8.77881 30.6702C8.95836 30.8659 9.20413 30.9839 9.46581 31L55.7934 31C55.9989 30.9308 56.1779 30.7968 56.3048 30.6173C56.4317 30.4377 56.5 30.2217 56.5 30C56.5 29.7783 56.4317 29.5623 56.3048 29.3827C56.1779 29.2032 55.9989 29.0692 55.7934 29L9.46581 29C9.21662 28.9998 8.97699 29.0982 8.797 29.2748C8.61701 29.4513 8.5106 29.6923 8.5 29.9474Z" fill="url(#paint0_linear_961_355)"/>
<g clip-path="url(#clip0_961_355)">
<path d="M63.9179 0.300056C80.8779 0.300056 94.5279 14.4401 93.7379 31.5701C93.0279 46.9701 80.4379 59.4201 65.0379 59.9801C51.4479 60.4701 39.8079 51.8801 35.6779 39.8001C34.9979 37.8001 33.5179 36.1801 31.6079 35.2801L20.6679 30.1401L31.5979 25.0101C33.4879 24.1201 34.9779 22.5301 35.6479 20.5501C39.6479 8.78006 50.7879 0.300056 63.9179 0.300056Z" fill="url(#paint1_linear_961_355)"/>
<circle cx="20" cy="20" r="20" transform="matrix(0 -1 -1 0 84.2686 50)" fill="white"/>
<path d="M59.2948 34.28C60.8308 32.952 62.0388 31.864 62.9188 31.016C63.8148 30.152 64.5588 29.256 65.1508 28.328C65.7428 27.4 66.0388 26.472 66.0388 25.544C66.0388 24.584 65.8068 23.832 65.3428 23.288C64.8948 22.744 64.1828 22.472 63.2068 22.472C62.2628 22.472 61.5268 22.776 60.9988 23.384C60.4868 23.976 60.2148 24.776 60.1828 25.784H57.5428C57.5908 23.96 58.1348 22.568 59.1748 21.608C60.2308 20.632 61.5668 20.144 63.1828 20.144C64.9268 20.144 66.2868 20.624 67.2628 21.584C68.2548 22.544 68.7508 23.824 68.7508 25.424C68.7508 26.576 68.4548 27.688 67.8628 28.76C67.2868 29.816 66.5908 30.768 65.7748 31.616C64.9748 32.448 63.9508 33.416 62.7028 34.52L61.6228 35.48H69.2308V37.76H57.5668V35.768L59.2948 34.28Z" fill="#231F20"/>
</g>
<defs>
<linearGradient id="paint0_linear_961_355" x1="9" y1="30" x2="110.5" y2="30" gradientUnits="userSpaceOnUse">
<stop stop-color="#1570EF"/>
<stop offset="1" stop-color="#0C4089"/>
</linearGradient>
<linearGradient id="paint1_linear_961_355" x1="57.2192" y1="60" x2="57.2192" y2="0.300056" gradientUnits="userSpaceOnUse">
<stop stop-color="#1570EF"/>
<stop offset="1" stop-color="#0C4089"/>
</linearGradient>
<clipPath id="clip0_961_355">
<rect width="60" height="82.6734" fill="white" transform="matrix(0 -1 -1 0 93.7686 60)"/>
</clipPath>
</defs>
</svg>
