<?xml version="1.0" encoding="utf-8"?>
<!-- Generator: Adobe Illustrator 25.2.1, SVG Export Plug-In . SVG Version: 6.00 Build 0)  -->
<svg version="1.1" id="Layer_1" xmlns="http://www.w3.org/2000/svg" xmlns:xlink="http://www.w3.org/1999/xlink" x="0px" y="0px"
	 viewBox="0 0 300 157.8" style="enable-background:new 0 0 300 157.8;" xml:space="preserve">
<style type="text/css">
	.st0{fill:#25435B;}
	.st1{fill:#67BAAA;}
	.st2{fill:none;}
	.st3{fill:#7FE5D4;}
	.st4{fill:#2BAEA4;}
</style>
<g>
	<polygon class="st0" points="146.5,0 94.7,94.5 114.2,94.5 146.4,32 181.9,93.9 197.4,93.3 	"/>
	<path class="st1" d="M197.7,94.1c0,0-18.2-61.3-86.6-45.3C111.1,48.8,117.1,99.3,197.7,94.1z"/>
	<path class="st2" d="M182.1,121.2"/>
	<path class="st3" d="M184.2,94.5c0,0-20.8-36.8-63.3-24.5C121,70,140.9,96.9,184.2,94.5z"/>
	<path class="st4" d="M195.3,121.3"/>
	<path class="st0" d="M87.4,128.5c0,4.4,0.1,8.9,0,13.3c-0.1,3.5-0.9,7-3.1,9.9c-1.6,2.1-3.6,3.6-6.1,4.4c-6.1,2-12.2,2-18.3,0.4
		c-1.8-0.5-3.6-1.2-5.3-1.8c-0.9-0.3-1.1-0.9-0.7-1.8c0.7-1.5,1.4-3,2.1-4.4c0.7-1.5,0.9-1.5,2.3-0.8c3.5,1.8,7.2,2.6,11.2,2.3
		c2.8-0.2,5.3-0.9,7-3.4c1.2-1.7,1.5-3.7,1.6-5.7c0.1-0.9-0.5-1-1.2-0.5c-0.8,0.6-1.5,1.3-2.3,1.9c-8,5.4-19.3,1.3-22.2-8.1
		c-1.6-5.1-1.1-10.2,1.7-14.8c4.4-7.2,15.5-9.4,22.1-3.2c0.3,0.3,0.8,0.4,1.2,0.6c0.1-0.5,0.4-0.9,0.4-1.4c0.1-2.3,0.1-2.3,2.3-2.3
		c1.8,0,3.7,0,5.5,0c1.7,0,1.9,0.1,1.9,1.9C87.5,119.5,87.5,124,87.4,128.5C87.4,128.5,87.4,128.5,87.4,128.5z M69.5,120.7
		c-5,0-8.2,3.3-8.2,8.2c0,4.5,3.5,7.6,8.5,7.6c4.6,0,8.2-3.4,8.1-7.8C77.9,124.1,74.3,120.7,69.5,120.7z"/>
	<path class="st0" d="M41.6,147.3c-1.2,0-2.4,0-3.6,0c-0.9,0-1.4-0.3-1.8-1.1c-1-2.4-2-4.8-3-7.2c-0.4-1.1-1.1-1.5-2.2-1.5
		c-5.2,0-10.3,0.1-15.5,0c-1.3,0-2,0.5-2.4,1.6c-0.9,2.3-1.9,4.5-2.8,6.7c-0.4,1.1-1,1.6-2.2,1.5c-2.3-0.1-4.6,0-6.9,0
		c-1.3,0-1.4-0.3-0.9-1.5c4-9.3,7.9-18.6,11.9-28c2-4.6,4-9.3,5.9-13.9c0.5-1.2,1.2-1.8,2.5-1.7c1.7,0.1,3.4,0.1,5.1,0
		c1.7-0.1,2.5,0.6,3.1,2c1.7,4.1,3.4,8.2,5.2,12.3c4.1,9.7,8.2,19.3,12.3,29c0.6,1.5,0.5,1.7-1.1,1.7
		C44,147.3,42.8,147.3,41.6,147.3C41.6,147.3,41.6,147.3,41.6,147.3z M23,114.7c-0.5,1.3-0.9,2.2-1.3,3.1c-1.3,3.2-2.6,6.3-3.9,9.5
		c-0.3,0.7-0.3,1.4,0.7,1.4c3,0,6,0,9,0c1,0,1.4-0.4,1-1.4c-1.5-3.7-3.1-7.4-4.6-11.1C23.8,115.7,23.5,115.3,23,114.7z"/>
	<path class="st0" d="M197.1,124.2c0-7.1,0-14.1,0-21.2c0-2.1,0.1-2.2,2.1-2.2c1.9,0,3.8,0,5.6,0c1.8,0,1.9,0.1,1.9,2
		c0,4.3,0,8.6,0,12.8c0,0.5,0.2,0.9,0.3,1.4c0.4-0.3,0.9-0.5,1.2-0.8c4.6-4.6,12.2-5,16.7-0.7c2.4,2.3,3.3,5.4,3.4,8.6
		c0.1,4.5,0.1,9.1,0.1,13.6c0,2.7,0,5.5,0,8.2c0,1-0.4,1.4-1.4,1.4c-2.3,0-4.5-0.1-6.8,0c-1.2,0-1.6-0.5-1.6-1.7
		c0-5.6,0-11.1,0-16.7c0-0.4,0-0.9,0-1.3c-0.1-3.9-2.3-6.2-6-6.2c-3.6,0-6,2.5-6,6.3c0,5.8,0,11.5,0,17.3c0,2.2,0,2.2-2.2,2.2
		c-1.8,0-3.7,0-5.5,0c-2,0-2,0-2-2C197.1,138.3,197.1,131.2,197.1,124.2C197.1,124.2,197.1,124.2,197.1,124.2z"/>
	<path class="st0" d="M121,130.6c-0.2-9.9,7.8-17.8,18-18c10.6-0.2,18.8,7.2,19,17.2c0.2,10.1-7.6,18.1-17.8,18.3
		C129.1,148.2,121.2,141,121,130.6z M139.2,120.5c-1.3,0.4-2.7,0.6-3.8,1.2c-4.8,2.4-5.8,8.6-4,12.7c1.4,3.3,3.9,5.3,7.5,5.6
		c5.1,0.4,8.7-2.8,9.5-8.2C149.3,125.9,145,120.7,139.2,120.5z"/>
	<path class="st0" d="M176.8,112.6c4.2,0,8,1.2,11.6,3.2c0.8,0.5,0.8,1.1,0.4,1.7c-0.8,1.5-1.7,3.1-2.6,4.6
		c-0.5,0.8-1.1,0.7-1.9,0.3c-1.8-0.8-3.5-1.6-5.3-2.1c-1.1-0.3-2.3-0.4-3.4-0.3c-1.4,0-2.5,0.8-2.7,1.9c-0.2,1.4,0.7,2.1,1.7,2.6
		c2.6,1.1,5.3,2,8,3.1c2.2,0.9,4.2,1.9,5.7,3.8c3.6,4.7,1.9,12.1-3.3,14.8c-4,2.1-8.1,2-12.4,1.3c-3.3-0.6-6.3-1.9-9-3.8
		c-0.9-0.6-1.1-1.2-0.5-2.1c0.9-1.3,1.7-2.5,2.5-3.9c0.6-1,1.2-1,2.2-0.4c3.2,2,6.5,3.4,10.4,3.1c0.3,0,0.6,0,0.9-0.1
		c1.1-0.2,1.9-0.9,2.2-1.9c0.3-1.1-0.3-2-1.2-2.4c-1.5-0.7-3.1-1.2-4.7-1.8c-2.2-0.8-4.4-1.4-6.4-2.5c-4.4-2.5-6-7-4.4-11.8
		c1.5-4.4,5.5-7.2,10.6-7.4C175.8,112.6,176.3,112.6,176.8,112.6z"/>
	<path class="st0" d="M267.6,134.5c0,3.7,0,7.4,0,11.2c0,1.6-0.1,1.7-1.7,1.7c-2.1,0-4.3,0-6.4,0c-1.5,0-1.6-0.1-1.7-1.7
		c0-7.4,0-14.7,0-22.1c0-2.1-0.1-2.2-2.2-2.2c-1.7,0-1.8-0.1-1.8-1.8c0-1.6,0-3.2,0-4.7c0-1,0.4-1.5,1.4-1.5c0,0,0.1,0,0.1,0
		c2.5-0.1,2.4-0.1,2.5-2.5c0-3.1,0.5-6.1,3-8.1c1.3-1,3-1.8,4.7-2.1c2.8-0.6,5.7-0.4,8.5,0.3c0.9,0.2,1.3,0.7,1.3,1.6
		c0,1.7,0,3.4,0,5.1c0,1.1-0.5,1.4-1.6,1.1c-1.1-0.2-2.3-0.4-3.4-0.3c-1.9,0.1-3.4,2.2-2.9,4c0.1,0.4,0.8,0.8,1.2,0.8
		c1.7,0.1,3.3,0.1,5,0.1c1.2,0,1.6,0.5,1.6,1.6c-0.1,1.5,0,3,0,4.5c0,1.7-0.2,1.9-1.9,1.9c-1.5,0-2.9,0-4.4,0
		c-1.1,0-1.5,0.5-1.5,1.5C267.6,126.8,267.6,130.6,267.6,134.5z"/>
	<path class="st0" d="M282.2,130.6c0-2.6,0-5.1,0-7.7c0-1.3-0.5-1.8-1.7-1.7c-0.3,0-0.7,0-1,0c-0.9,0-1.4-0.4-1.4-1.3
		c0-1.8,0-3.5,0-5.3c0-1,0.5-1.4,1.5-1.5c2.6-0.1,2.6-0.1,2.6-2.7c0-1.5,0-2.9,0-4.4c0-1,0.4-1.5,1.4-1.5c2.3,0,4.6,0,6.9,0
		c0.9,0,1.3,0.5,1.3,1.4c0,1.8,0,3.7,0,5.5c0,1.5,0.3,1.7,1.7,1.7c1.6,0,3.2,0,4.7,0c1.2,0,1.7,0.4,1.7,1.7c-0.1,1.6-0.1,3.2,0,4.7
		c0.1,1.3-0.5,1.7-1.7,1.6c-1.7,0-3.3,0-5,0c-1,0-1.5,0.4-1.5,1.5c0,4.4,0,8.7,0.1,13.1c0.1,2.7,1.3,3.8,4,3.5
		c0.8-0.1,1.7-0.3,2.5-0.5c0.9-0.3,1.4,0,1.4,1c0,1.7,0,3.3,0,5c0,1-0.5,1.6-1.4,1.9c-3.6,1.5-7.3,1.7-10.9,0.6
		c-3.1-0.9-4.8-3.3-5-6.5c-0.2-3.4-0.1-6.7-0.1-10.1C282.4,130.6,282.3,130.6,282.2,130.6z"/>
	<path class="st0" d="M106.2,118.6c0.5-0.7,1-1.4,1.5-2.1c1.9-2.4,4.2-3.8,7.3-3.9c1.1,0,1.6,0.4,1.6,1.5c0,2.4,0,4.9,0,7.3
		c0,0.8-0.3,1.3-1.2,1.3c-6.9,0.4-9.5,4.9-9.7,10.7c-0.2,4.1-0.1,8.1-0.1,12.2c0,1.7-0.1,1.8-1.8,1.8c-2.1,0-4.3,0-6.4,0
		c-1,0-1.5-0.3-1.5-1.4c0-10.4,0-20.9,0-31.3c0-1.1,0.4-1.6,1.5-1.5c2.3,0,4.5,0.1,6.8,0c1.1,0,1.4,0.5,1.4,1.5c0,0.9,0,1.8,0,2.7
		c0,0.4,0.1,0.8,0.1,1.2C105.9,118.5,106.1,118.6,106.2,118.6z"/>
	<path class="st0" d="M247.1,130.3c0,5.1,0,10.3,0,15.4c0,1.3-0.5,1.6-1.7,1.6c-2.2-0.1-4.4,0-6.5,0c-1.1,0-1.5-0.4-1.5-1.5
		c0-10.4,0-20.8,0-31.2c0-1.1,0.5-1.5,1.5-1.5c2.2,0,4.4,0,6.7,0c1.1,0,1.5,0.5,1.5,1.6C247,119.9,247.1,125.1,247.1,130.3z"/>
	<path class="st0" d="M242.3,100.1c1.2,0,2.4,0,3.6,0c1,0,1.5,0.4,1.5,1.4c0,2,0,4,0,6c0,0.9-0.4,1.4-1.4,1.4c-2.5,0-4.9,0-7.4,0
		c-1,0-1.4-0.5-1.4-1.4c0-2,0-4,0-6c0-0.9,0.4-1.3,1.3-1.3C239.7,100.1,241,100.1,242.3,100.1C242.3,100.1,242.3,100.1,242.3,100.1z
		"/>
</g>
</svg>
